<?xml version="1.0" standalone="no"?>
<!DOCTYPE svg PUBLIC "-//W3C//DTD SVG 20010904//EN"
 "http://www.w3.org/TR/2001/REC-SVG-20010904/DTD/svg10.dtd">
<svg version="1.0" xmlns="http://www.w3.org/2000/svg"
 width="5001.000000pt" height="5001.000000pt" viewBox="0 0 5001.000000 5001.000000"
 preserveAspectRatio="xMidYMid meet">

<g transform="translate(0.000000,5001.000000) scale(0.100000,-0.100000)"
fill="#000000" stroke="none">
<path d="M37132 42085 c-61 -27 -90 -55 -246 -238 -161 -191 -583 -617 -610
-617 -9 0 -16 6 -16 13 0 11 235 356 448 657 31 43 58 111 44 109 -4 0 -106
-114 -226 -254 -120 -140 -223 -252 -227 -249 -19 11 -6 44 51 134 33 51 60
97 60 102 0 19 -23 6 -58 -33 -99 -111 -120 -129 -146 -129 -25 0 -25 2 40
106 49 79 63 109 54 118 -8 8 -27 -6 -73 -54 -34 -36 -169 -177 -299 -315
-213 -224 -494 -497 -557 -541 -22 -16 -23 -16 -13 2 6 11 36 48 66 84 33 37
62 82 69 106 9 32 51 83 188 230 97 104 191 206 208 226 30 35 67 125 56 136
-12 12 -287 -266 -645 -653 -107 -115 -292 -309 -410 -430 -118 -122 -348
-359 -510 -528 -262 -274 -296 -306 -307 -290 -22 29 -14 69 22 119 63 87 69
113 26 99 -12 -3 -39 -33 -61 -64 -33 -50 -56 -71 -76 -71 -7 0 15 47 40 85
23 33 26 48 26 117 0 109 -6 118 -80 118 -71 0 -133 -22 -155 -56 -9 -14 -41
-37 -71 -52 -51 -25 -58 -32 -88 -97 -39 -85 -83 -137 -145 -172 -61 -35 -89
-61 -111 -103 -21 -40 -62 -80 -135 -132 -69 -50 -107 -92 -125 -139 -16 -42
-364 -449 -384 -449 -7 0 -17 5 -24 12 -15 15 -80 -29 -126 -89 -29 -38 -33
-49 -25 -70 16 -43 10 -61 -27 -87 -37 -25 -37 -25 -53 -5 -16 20 -22 15 -202
-178 -365 -389 -759 -844 -759 -876 0 -5 25 12 55 38 57 48 81 54 52 13 -9
-13 -51 -61 -94 -107 l-79 -84 -21 32 -20 33 -166 -184 c-287 -318 -625 -723
-614 -734 3 -3 22 -1 43 5 21 6 39 9 41 7 2 -2 -33 -49 -79 -104 -45 -56 -83
-100 -85 -98 -2 1 8 28 22 60 27 61 30 76 16 76 -13 0 -165 -189 -158 -196 3
-4 27 1 52 10 32 11 44 12 38 3 -37 -48 -208 -258 -233 -284 -30 -33 -50 -42
-50 -23 0 6 24 43 53 83 99 134 103 141 80 129 -41 -23 -154 -156 -295 -347
-91 -125 -183 -238 -244 -300 -112 -113 -245 -285 -293 -377 -17 -34 -29 -63
-27 -66 3 -2 18 5 34 17 35 25 45 26 40 7 -5 -24 -573 -755 -580 -748 -4 4
-10 19 -13 35 -6 22 -4 27 11 27 22 1 107 107 97 123 -11 18 -115 -103 -243
-283 -68 -94 -125 -169 -127 -166 -12 12 24 95 73 167 143 208 59 196 -92 -14
-76 -104 -164 -255 -164 -279 0 -5 10 -8 23 -9 64 -2 62 -10 -27 -112 -47 -54
-86 -102 -86 -107 0 -5 -12 -23 -27 -40 -24 -29 -30 -31 -67 -26 l-41 6 -91
-118 c-196 -253 -304 -420 -411 -634 -34 -69 -63 -130 -63 -133 0 -4 11 0 25
9 14 9 25 13 25 9 -1 -34 -151 -263 -235 -358 l-36 -40 17 35 c9 19 36 70 60
112 46 80 88 177 81 185 -6 5 -112 -131 -242 -312 -128 -178 -291 -424 -520
-785 -92 -146 -261 -407 -375 -580 -192 -291 -300 -467 -769 -1253 -193 -324
-355 -577 -370 -577 -14 0 -41 41 -41 64 0 10 22 65 50 120 52 107 86 221 68
232 -5 4 -15 0 -22 -7 -7 -8 -52 -60 -101 -116 -72 -85 -91 -101 -102 -91 -8
7 -72 91 -142 187 -70 97 -281 385 -467 641 -187 256 -472 650 -634 875 -162
226 -340 471 -396 547 -56 75 -139 198 -185 273 -127 207 -185 291 -272 395
-79 94 -233 298 -442 585 -61 82 -146 193 -191 245 -44 52 -139 176 -209 275
-125 176 -424 575 -574 765 -41 52 -111 131 -155 175 -48 47 -134 155 -210
260 -205 285 -620 818 -806 1035 -124 145 -510 695 -510 727 0 22 25 15 81
-24 51 -35 112 -50 116 -28 1 6 -68 93 -154 194 -127 150 -160 195 -175 240
-10 30 -26 66 -35 80 -9 15 -112 125 -229 246 -269 279 -301 318 -471 571 -78
115 -154 221 -171 236 -17 15 -47 60 -65 100 -28 58 -81 127 -267 343 -605
703 -904 1024 -1500 1604 -556 541 -731 704 -1337 1243 l-331 295 -287 167
c-270 158 -345 196 -345 176 0 -5 29 -51 64 -102 34 -51 70 -106 78 -123 19
-38 32 -105 20 -105 -21 0 -80 50 -124 105 -31 38 -65 69 -96 84 -26 13 -68
41 -93 62 -62 51 -115 81 -134 77 -9 -2 -33 -41 -54 -89 l-38 -85 43 -50 c24
-27 44 -55 44 -62 0 -19 -44 -6 -126 38 -102 54 -167 73 -223 67 -148 -19
-140 -16 -152 -61 -5 -22 -15 -57 -20 -76 -9 -33 -7 -37 26 -67 26 -25 44 -33
72 -33 45 0 98 -30 108 -60 4 -12 5 -23 3 -24 -1 -1 -41 -18 -88 -38 -68 -28
-84 -39 -82 -54 1 -10 14 -69 28 -131 24 -105 29 -116 78 -177 47 -57 75 -111
63 -122 -2 -2 -28 4 -59 15 -30 10 -77 18 -104 18 -55 -1 -94 16 -166 74 -55
43 -142 74 -239 85 l-62 7 20 -29 c12 -16 60 -72 108 -124 76 -84 145 -180
145 -203 0 -14 -115 70 -148 108 -18 19 -32 39 -32 44 0 13 -107 118 -213 207
-96 81 -162 122 -175 110 -10 -11 19 -141 49 -216 39 -97 82 -166 205 -331 89
-119 109 -140 153 -160 36 -17 53 -31 57 -49 13 -54 16 -60 33 -60 33 0 120
-51 161 -96 44 -48 100 -155 100 -192 l0 -22 -47 24 c-71 36 -156 101 -273
211 -58 54 -132 118 -164 142 -56 41 -60 43 -77 27 -26 -23 -24 -62 6 -106 21
-31 34 -78 22 -78 -2 0 -25 7 -51 16 -26 9 -50 14 -53 10 -3 -3 2 -32 11 -64
22 -70 19 -89 -15 -114 -37 -28 -50 -18 -165 115 -53 61 -110 121 -127 131
l-29 20 7 -25 c4 -13 42 -96 86 -184 85 -175 157 -293 322 -531 59 -86 106
-158 104 -161 -7 -7 -107 34 -147 61 -22 15 -70 71 -116 138 -105 149 -129
190 -159 269 -18 47 -33 69 -51 78 -37 17 -54 14 -54 -11 0 -26 314 -644 376
-740 63 -99 84 -142 91 -195 9 -67 78 -210 161 -333 75 -112 169 -222 452
-525 97 -104 193 -208 212 -230 38 -44 148 -199 148 -209 0 -4 -19 3 -43 15
-23 12 -89 71 -150 135 -118 123 -166 154 -271 173 -33 6 -65 11 -72 11 -7 0
23 -48 67 -106 81 -108 205 -289 274 -402 43 -71 40 -82 -27 -82 -35 0 -42 6
-121 103 -46 56 -144 185 -217 287 -152 213 -206 278 -448 542 -98 106 -342
378 -543 603 -202 226 -377 420 -390 431 -13 12 -49 27 -80 33 -80 17 -130 53
-243 174 -86 93 -364 422 -436 517 -23 29 -29 31 -47 22 -17 -10 -23 -25 -28
-78 -4 -36 -5 -83 -2 -104 8 -61 246 -450 369 -604 30 -37 74 -105 98 -149 81
-154 251 -449 306 -531 54 -80 68 -126 39 -126 -19 0 -342 377 -528 615 -77
99 -172 212 -211 251 -69 69 -116 99 -116 74 0 -26 22 -50 53 -55 30 -6 35
-13 51 -59 12 -34 88 -152 213 -332 189 -270 223 -327 202 -340 -13 -8 -38 15
-152 143 -50 57 -95 103 -99 103 -16 0 23 -82 76 -161 56 -82 80 -142 74 -181
-2 -16 -27 6 -112 102 -99 109 -159 160 -173 147 -2 -3 94 -162 214 -354 462
-735 743 -1213 711 -1213 -23 0 -33 12 -101 116 -66 100 -117 155 -164 177
-16 7 -42 46 -80 119 -30 60 -94 168 -143 241 -89 135 -259 362 -288 385 -24
19 -42 14 -42 -10 0 -31 199 -373 405 -698 93 -146 351 -562 575 -925 224
-363 452 -732 507 -821 320 -510 986 -1515 1253 -1889 480 -671 1248 -1658
1310 -1683 4 -2 11 5 14 15 8 20 8 20 -341 510 -350 492 -348 489 -302 548
l22 27 70 -69 c38 -37 184 -221 325 -408 141 -187 524 -689 852 -1115 939
-1222 1498 -1958 1522 -2005 9 -16 23 -64 32 -106 20 -93 76 -203 165 -329
107 -151 186 -271 278 -423 148 -246 410 -621 500 -716 38 -39 67 -61 81 -61
12 0 22 1 22 3 0 11 -92 252 -114 297 -15 32 -26 72 -25 95 l0 40 30 -35 c16
-19 46 -68 66 -108 28 -57 48 -82 87 -112 72 -53 70 -51 412 -505 169 -225
378 -498 464 -605 85 -107 211 -271 280 -365 200 -273 304 -400 465 -565 111
-115 179 -195 260 -310 317 -449 515 -734 515 -741 0 -5 -14 -12 -31 -17 l-31
-8 28 -34 c16 -19 74 -87 129 -150 156 -178 162 -192 99 -230 l-35 -23 -48 52
c-43 46 -81 66 -81 41 0 -5 9 -33 21 -62 l20 -53 -51 50 c-61 59 -127 149
-164 223 -15 29 -65 101 -113 159 -47 59 -109 143 -136 187 -27 45 -76 109
-108 143 -32 35 -93 109 -135 165 -129 170 -218 280 -378 466 -84 97 -188 222
-231 277 -43 55 -138 168 -210 250 -189 216 -227 264 -315 395 -43 64 -114
161 -157 216 -43 54 -107 136 -142 182 -102 135 -231 265 -247 249 -15 -15 26
-99 103 -209 99 -141 91 -131 482 -622 418 -525 893 -1159 1205 -1609 73 -106
161 -230 195 -277 72 -100 156 -263 172 -336 11 -48 10 -54 -10 -83 -12 -17
-29 -31 -36 -31 -8 0 -28 27 -47 60 -18 33 -36 60 -39 60 -4 0 -12 -7 -19 -15
-10 -12 -4 -26 34 -80 25 -36 46 -68 46 -70 0 -18 -175 -256 -904 -1225 -457
-608 -940 -1251 -1073 -1430 -437 -584 -542 -716 -708 -890 -34 -36 -142 -182
-240 -325 -206 -300 -370 -529 -500 -700 -84 -110 -288 -390 -490 -675 -45
-63 -121 -180 -168 -260 -47 -80 -113 -177 -147 -217 -33 -40 -76 -100 -96
-134 -58 -103 -101 -159 -291 -371 -323 -362 -541 -592 -595 -628 -39 -26 -60
-49 -81 -90 -15 -30 -63 -96 -105 -147 -42 -50 -228 -270 -413 -490 -513 -609
-759 -925 -1404 -1798 -658 -892 -911 -1249 -1510 -2135 -192 -283 -468 -690
-613 -905 -781 -1148 -971 -1445 -1207 -1884 -178 -331 -252 -550 -274 -813
-8 -103 0 -234 19 -284 l11 -27 53 59 c29 32 65 73 80 89 l27 30 -6 -165 c-4
-113 -2 -175 6 -198 l11 -33 57 54 c56 53 204 167 217 167 4 0 4 -45 0 -100
l-7 -100 28 6 c66 13 63 17 102 -106 35 -108 39 -115 62 -112 161 19 217 9
285 -50 32 -29 34 -33 34 -99 l0 -68 38 -7 c20 -3 48 -13 60 -21 28 -17 61
-86 62 -125 0 -15 4 -29 8 -32 5 -3 50 -8 100 -12 l91 -7 78 48 c93 58 199
139 206 160 8 20 91 78 95 66 2 -5 -8 -32 -22 -60 -14 -28 -26 -54 -26 -58 0
-17 139 130 238 252 101 124 260 290 269 281 6 -5 -44 -103 -122 -241 -68
-121 -108 -205 -96 -205 17 0 73 71 111 143 43 79 101 149 108 129 4 -14 -26
-131 -84 -327 -38 -127 -84 -341 -84 -391 0 -30 30 -12 72 43 36 48 85 89 94
80 2 -1 -20 -101 -48 -221 -32 -141 -46 -222 -40 -228 6 -6 39 26 91 91 45 56
87 99 93 95 6 -4 9 -37 6 -82 -3 -84 12 -107 32 -48 21 63 45 44 52 -41 l3
-33 64 45 c36 25 75 45 88 45 34 0 49 -38 35 -92 -6 -23 -9 -44 -7 -46 9 -9
63 35 109 87 27 31 239 252 471 491 232 239 483 500 556 580 124 134 779 863
876 974 43 49 54 45 32 -11 -6 -15 -15 -71 -19 -123 -9 -116 -29 -162 -137
-325 -103 -156 -273 -441 -273 -459 0 -10 125 -7 158 5 34 12 245 243 377 414
85 108 97 123 349 394 93 100 181 188 197 196 26 14 27 14 21 -8 -6 -25 -26
-56 -329 -515 -195 -297 -233 -366 -221 -402 2 -6 35 35 73 91 39 56 102 138
142 181 40 43 97 114 127 157 60 85 127 151 152 151 22 0 17 -11 -67 -152 -63
-107 -74 -138 -50 -138 5 0 42 43 82 97 48 62 85 101 106 110 50 20 57 16 34
-20 -70 -107 -132 -228 -129 -252 3 -24 19 -8 148 141 295 340 477 544 679
758 166 177 207 216 209 198 2 -14 -18 -48 -64 -104 -65 -80 -103 -146 -104
-180 0 -9 -66 -93 -147 -185 -309 -351 -333 -384 -333 -445 0 -32 1 -31 111
77 108 108 217 230 611 685 107 124 327 371 489 550 542 598 751 840 1116
1290 462 571 767 973 1228 1620 85 118 359 537 371 567 12 27 12 33 1 33 -7 0
-20 -6 -29 -12 -8 -7 -125 -155 -258 -328 -324 -420 -348 -449 -377 -456 -29
-8 -73 10 -73 28 0 28 105 186 316 478 121 168 421 586 665 930 245 344 510
715 590 825 180 247 351 491 684 975 298 432 754 1077 1545 2185 348 487 573
811 599 863 39 77 71 110 58 60 -7 -26 9 -49 29 -41 10 3 14 21 14 57 0 89 72
215 161 282 52 39 112 121 249 339 80 127 291 425 302 425 12 0 208 -132 208
-140 0 -4 -18 -19 -40 -34 -64 -42 -117 -94 -145 -141 -39 -68 -58 -77 -108
-55 -23 10 -43 17 -45 15 -2 -2 8 -24 23 -48 l26 -46 -431 -646 c-237 -356
-433 -645 -435 -643 -2 2 5 37 15 78 23 89 22 83 10 75 -24 -15 -53 -95 -61
-166 -5 -43 -17 -97 -28 -122 -10 -24 -113 -169 -228 -323 -115 -153 -239
-326 -276 -384 -56 -89 -64 -107 -52 -119 35 -35 89 33 495 614 332 474 472
668 983 1350 338 451 388 515 407 515 4 0 40 -30 79 -67 52 -47 82 -85 106
-133 19 -37 65 -106 103 -152 135 -165 406 -556 507 -730 l27 -48 -31 -17
c-17 -10 -31 -20 -31 -23 0 -3 74 -111 164 -240 144 -207 166 -235 187 -232
13 2 29 5 36 5 6 1 115 -137 242 -306 128 -169 236 -305 241 -302 6 3 10 28
10 56 0 27 4 49 9 49 5 0 23 -16 41 -36 24 -27 30 -42 26 -60 -10 -37 7 -58
102 -131 101 -78 116 -94 281 -301 67 -83 169 -200 225 -260 134 -140 316
-382 328 -435 5 -22 7 -42 4 -44 -3 -3 -38 16 -79 41 -40 25 -79 46 -85 46
-29 0 -7 -43 64 -127 29 -34 80 -103 114 -152 34 -51 131 -162 218 -253 167
-174 317 -369 307 -400 -3 -10 -8 -26 -11 -37 -4 -13 9 -30 53 -67 112 -94
180 -160 289 -279 60 -66 153 -166 207 -222 87 -90 150 -184 134 -200 -3 -2
-24 5 -47 17 -23 12 -44 19 -47 16 -9 -9 81 -128 133 -176 27 -25 74 -64 104
-87 72 -53 87 -71 151 -178 29 -49 86 -125 125 -167 40 -43 87 -98 104 -123
32 -47 74 -134 68 -140 -4 -4 -252 219 -452 408 -197 187 -476 487 -604 650
-113 144 -169 206 -220 240 -24 16 -37 37 -50 77 -16 50 -35 73 -224 263 -198
199 -249 259 -263 319 -8 32 -29 52 -86 81 -32 16 -65 50 -124 127 -44 58
-119 143 -166 190 -69 68 -94 101 -124 165 -34 69 -55 96 -161 200 -97 96
-127 132 -149 180 -21 46 -37 66 -66 83 -21 12 -70 60 -109 106 -66 79 -140
147 -140 129 1 -29 91 -156 265 -370 630 -779 830 -1017 1105 -1313 90 -96
219 -240 289 -320 213 -245 590 -668 676 -759 74 -79 160 -162 321 -312 33
-31 76 -83 95 -115 23 -41 136 -162 364 -394 409 -414 528 -548 630 -705 53
-81 83 -114 122 -134 30 -15 29 -16 25 29 -2 22 -1 40 2 40 3 0 22 -10 41 -22
28 -19 35 -29 35 -56 0 -51 15 -69 88 -106 78 -40 149 -110 328 -326 67 -80
135 -157 152 -170 35 -28 285 -317 642 -744 129 -154 275 -322 325 -375 50
-53 134 -148 185 -211 116 -142 134 -162 391 -435 114 -121 226 -244 249 -273
23 -30 58 -63 77 -75 45 -26 133 -158 126 -187 -3 -11 -10 -23 -15 -26 -5 -3
-90 31 -189 76 -99 45 -183 79 -186 76 -3 -3 -2 -15 3 -25 11 -24 318 -306
320 -294 2 4 5 25 9 45 9 58 28 71 92 63 38 -5 59 -3 70 6 13 12 41 -13 202
-179 113 -118 213 -211 255 -240 57 -39 78 -61 115 -122 31 -51 95 -126 203
-236 87 -89 158 -169 158 -178 0 -32 33 -82 97 -148 44 -44 64 -71 60 -82 -5
-13 -27 -3 -116 49 -60 36 -114 65 -120 65 -27 0 -5 -32 61 -91 40 -35 133
-119 208 -187 140 -128 356 -299 366 -290 3 3 -27 43 -67 89 -73 85 -145 186
-138 193 10 10 84 -26 135 -65 157 -121 445 -384 526 -481 38 -45 39 -50 18
-43 -14 4 -95 57 -180 118 -147 105 -250 161 -250 136 0 -6 29 -41 64 -77 65
-69 86 -99 86 -126 0 -27 -47 -19 -103 17 -56 37 -374 290 -527 421 -52 45
-123 103 -158 130 -61 47 -83 76 -95 127 -7 27 -40 57 -772 704 -514 454 -709
645 -937 920 -55 66 -129 144 -166 173 -95 76 -155 136 -220 222 -93 124 -143
180 -232 257 -100 88 -136 132 -151 187 -14 51 -32 72 -89 101 -47 24 -87 63
-134 130 -16 22 -86 96 -156 165 -107 106 -132 136 -162 200 -32 65 -50 87
-137 164 -55 49 -126 124 -158 165 -86 112 -268 295 -324 326 -27 14 -49 23
-49 20 0 -13 80 -108 289 -345 115 -129 315 -361 446 -515 405 -476 501 -583
890 -990 127 -132 331 -349 455 -480 337 -359 600 -624 711 -717 55 -46 118
-109 139 -140 42 -59 409 -416 635 -617 296 -264 721 -612 1365 -1120 461
-363 616 -478 627 -467 12 12 14 94 4 134 -7 23 -24 57 -40 75 -15 17 -33 42
-40 54 -18 36 -171 253 -210 301 -20 24 -67 68 -106 97 -38 29 -83 67 -100 84
l-29 32 40 -14 c117 -42 311 -156 352 -208 33 -42 76 -61 116 -54 28 6 43 0
100 -39 65 -45 131 -70 164 -64 11 2 -39 48 -142 131 -87 70 -161 127 -165
127 -4 0 -18 -14 -30 -31 -13 -17 -27 -27 -31 -22 -4 4 -22 47 -40 95 -27 72
-41 95 -81 132 -44 40 -77 92 -66 103 25 24 503 -330 773 -574 120 -108 146
-123 212 -123 28 0 52 3 52 8 0 25 -97 119 -240 233 -91 72 -177 146 -193 164
l-27 33 30 7 c16 4 35 3 42 -1 7 -5 126 -89 263 -188 138 -99 286 -206 330
-237 68 -49 91 -60 145 -68 111 -18 112 -18 35 60 -47 48 -91 81 -133 101 -79
37 -97 64 -98 143 0 35 -8 73 -18 93 -17 33 -108 141 -295 352 -117 131 -156
184 -146 199 9 16 39 -2 104 -61 29 -27 90 -70 135 -97 52 -31 121 -86 191
-153 175 -169 189 -178 388 -263 171 -73 277 -103 277 -78 0 18 -126 176 -214
270 -75 79 -99 113 -81 113 2 0 60 -22 127 -49 68 -26 174 -65 237 -86 93 -31
115 -35 122 -24 13 19 -30 55 -251 211 -376 266 -373 263 -384 343 -6 37 -34
67 -354 383 -353 348 -353 348 -444 367 -43 8 -87 53 -117 119 -16 33 -50 88
-75 121 -25 33 -46 65 -46 70 0 15 56 46 72 40 8 -3 137 -132 287 -286 230
-235 504 -499 687 -660 22 -20 72 -48 110 -63 60 -22 82 -39 158 -115 73 -74
93 -88 107 -80 33 17 51 9 117 -55 37 -34 95 -78 129 -96 35 -18 103 -71 157
-122 l96 -90 0 49 c-1 72 -31 127 -118 212 -76 74 -142 154 -142 173 0 12 114
-51 210 -116 92 -62 222 -190 278 -273 32 -47 50 -64 79 -74 21 -6 64 -25 96
-41 51 -27 61 -29 87 -18 17 7 30 16 30 20 0 5 -23 28 -51 52 -121 102 -116
93 -94 173 3 11 -3 30 -14 44 -18 24 -19 24 -60 8 -23 -10 -43 -17 -45 -17 -5
0 -213 253 -264 321 -57 76 -58 117 -2 188 l40 50 -26 17 c-22 15 -31 16 -60
5 -27 -10 -38 -10 -49 -1 -14 12 -95 151 -95 163 0 3 13 8 29 12 40 9 90 -15
139 -65 22 -24 53 -51 68 -61 27 -18 28 -18 61 12 44 38 79 37 133 -3 84 -64
104 -77 108 -73 2 2 -6 33 -18 69 -12 36 -19 70 -15 76 10 16 45 12 72 -10 25
-20 63 -27 62 -12 0 4 -42 63 -94 132 -51 69 -91 128 -89 132 3 4 23 0 45 -7
40 -14 59 -13 59 5 0 5 -26 24 -58 44 -55 33 -60 39 -75 95 -9 32 -31 78 -50
102 -30 40 -36 44 -71 41 -34 -3 -42 1 -79 40 -59 62 -246 305 -275 356 -33
59 -19 72 43 42 49 -24 89 -60 164 -149 24 -28 87 -83 140 -120 102 -73 147
-117 254 -246 36 -44 119 -133 185 -198 94 -94 121 -115 130 -105 8 11 -15 45
-108 158 -65 80 -164 195 -218 255 -55 61 -96 111 -92 113 5 2 22 -4 39 -13
17 -8 31 -13 31 -10 0 3 -35 47 -77 98 -89 107 -157 208 -146 217 5 4 27 12
51 18 l43 10 127 -101 c138 -109 306 -268 383 -360 l49 -58 0 63 c0 69 -23
130 -60 163 -37 33 -57 86 -69 179 -6 49 -9 92 -6 94 2 3 21 -8 40 -23 20 -15
39 -25 41 -22 3 3 -14 58 -38 122 -39 106 -51 126 -124 213 -44 54 -154 192
-245 307 -381 486 -384 490 -374 570 9 69 -6 101 -97 211 -200 241 -311 414
-266 414 29 0 142 -86 190 -144 28 -33 58 -64 67 -68 9 -4 41 -7 71 -7 62 -1
74 -7 84 -37 8 -28 52 -52 67 -37 8 8 0 19 -30 38 -22 15 -41 31 -41 35 0 4
-23 33 -50 64 -46 53 -56 76 -50 116 3 20 -2 19 60 8 64 -11 136 -45 193 -90
l39 -32 -15 30 c-9 17 -63 91 -122 165 -58 74 -205 276 -327 449 -557 793
-709 1001 -1194 1630 -364 473 -683 899 -1414 1890 -168 228 -345 464 -392
523 -47 60 -129 170 -182 245 -52 75 -123 169 -157 207 -114 129 -261 336
-278 390 -13 42 -33 68 -132 165 -102 101 -119 123 -139 177 -17 47 -46 90
-122 180 -223 263 -250 297 -308 381 -33 48 -76 106 -95 130 -26 32 -35 53
-35 81 0 31 -5 39 -32 54 -21 11 -64 63 -115 135 -45 64 -183 261 -306 437
-412 589 -1260 1750 -1457 1995 -214 266 -398 532 -735 1060 -222 349 -418
643 -527 794 -44 60 -74 106 -66 103 7 -2 44 -17 81 -32 37 -15 70 -25 73 -22
12 12 -49 105 -219 337 -230 313 -345 461 -536 690 -359 429 -741 927 -741
965 0 4 20 25 45 47 25 22 76 79 112 127 130 169 178 224 222 257 24 19 46 33
47 31 2 -2 -16 -53 -40 -113 -24 -60 -42 -112 -39 -116 12 -20 36 -2 100 75
63 74 120 147 379 487 45 58 161 218 259 355 200 281 263 362 485 625 156 184
316 383 569 704 211 267 226 305 55 136 -164 -163 -430 -453 -580 -632 -167
-199 -327 -360 -332 -334 -10 50 291 437 744 956 307 351 424 489 424 498 0 4
-9 22 -20 39 l-20 33 70 120 c39 66 70 122 70 124 0 3 14 27 30 53 28 44 40
103 21 103 -5 0 -47 -50 -92 -112 -46 -62 -115 -148 -152 -193 -38 -44 -95
-125 -129 -180 -33 -55 -77 -119 -98 -142 -21 -22 -48 -61 -61 -85 -12 -23
-47 -70 -79 -104 -42 -44 -74 -92 -115 -175 -31 -63 -80 -145 -109 -184 -52
-69 -234 -275 -242 -275 -16 0 172 293 346 540 393 561 1032 1403 1204 1587
50 53 54 56 64 37 9 -17 4 -31 -27 -80 -21 -32 -67 -91 -104 -131 -79 -86 -96
-117 -104 -186 -4 -43 -22 -80 -106 -217 -55 -91 -102 -169 -105 -173 -2 -5 5
-4 16 2 32 17 80 13 111 -10 26 -19 32 -20 57 -8 16 8 47 39 69 69 59 80 887
1116 1380 1725 730 902 955 1175 1090 1320 134 144 281 329 822 1035 391 511
544 718 668 900 106 157 169 242 400 540 83 107 220 290 304 405 111 150 184
239 259 313 58 56 106 101 108 99 2 -1 -4 -33 -12 -71 -9 -37 -13 -70 -10 -73
14 -14 60 35 130 141 51 76 101 137 147 178 69 63 106 116 189 273 54 103 148
244 247 370 43 55 100 130 126 167 26 38 64 80 84 95 108 84 125 106 301 398
46 77 128 201 182 275 175 242 329 500 557 935 198 377 710 1417 752 1527 77
200 156 515 149 594 l-3 36 -48 -66 c-51 -69 -122 -136 -144 -136 -16 0 -17
44 -1 73 6 12 24 38 39 57 21 26 35 66 55 148 14 62 24 116 21 119 -3 3 -37
12 -74 20 l-68 14 -37 -43 c-20 -23 -40 -40 -43 -37 -3 3 0 49 7 101 13 109 3
183 -35 240 -20 29 -28 33 -75 36 -79 5 -88 -4 -95 -90 -9 -114 -10 -115 -75
-43 -31 35 -60 64 -64 64 -5 1 -42 -16 -84 -36 -59 -29 -91 -53 -139 -106
l-63 -69 -11 64 c-15 86 -14 140 4 213 17 73 18 109 4 176 -11 51 -11 51 -31
32 -10 -11 -47 -62 -81 -113 -34 -52 -73 -101 -85 -109 l-24 -15 15 35 c8 19
49 97 91 174 84 153 127 268 109 286 -15 15 -109 -35 -191 -102 -83 -67 -153
-156 -209 -264 -25 -49 -55 -100 -65 -112 -11 -12 -24 -43 -29 -70 -14 -72
-55 -131 -117 -166 -29 -16 -54 -28 -56 -26 -2 2 39 105 90 229 51 124 94 228
94 233 0 4 -11 13 -25 19 -23 10 -29 8 -58 -20 -46 -45 -67 -43 -67 8 0 45 0
46 -41 24 -17 -8 -45 -14 -62 -12 -28 3 -32 7 -35 36 -3 25 6 47 36 91 65 94
84 137 68 150 -11 9 -52 -26 -202 -172 -104 -102 -220 -223 -259 -270 l-70
-86 -3 41 c-6 76 19 117 159 255 129 128 145 153 121 190 -7 12 -265 -212
-477 -416 -47 -44 -105 -89 -140 -106 -98 -49 -213 -172 -340 -366 -61 -92
-146 -229 -190 -305 -69 -119 -179 -263 -192 -251 -2 3 25 62 59 132 60 122
63 132 63 201 0 109 -10 110 -95 7 -112 -136 -247 -273 -270 -273 -5 0 -10 17
-10 38 0 45 28 91 121 205 161 197 123 140 677 1001 134 208 250 396 257 417
8 21 18 70 24 109 11 79 7 71 179 335 119 180 161 255 162 283 0 17 -86 15
-128 -3z m-72 -244 c-29 -58 -157 -207 -168 -196 -3 2 12 30 32 61 58 86 161
215 164 205 2 -5 -11 -37 -28 -70z m-24932 -1768 c91 -90 246 -312 230 -329
-9 -8 -127 125 -205 229 -121 163 -132 204 -25 100z m23924 -545 c-22 -49 -95
-149 -142 -193 l-32 -30 15 37 c31 75 160 248 174 234 3 -2 -4 -24 -15 -48z
m328 -1357 c-14 -49 -31 -74 -104 -151 -48 -50 -121 -152 -221 -307 l-150
-233 -52 0 c-29 0 -53 4 -53 9 0 11 246 342 382 513 94 118 174 198 199 198 4
0 4 -13 -1 -29z m-21667 -272 c20 -17 58 -58 84 -92 26 -34 66 -83 90 -110 42
-45 80 -113 69 -124 -18 -19 -168 142 -248 267 -64 101 -63 115 5 59z m1823
-201 c40 -28 56 -48 96 -127 57 -112 55 -109 338 -421 122 -135 229 -255 236
-266 13 -19 13 -30 -2 -88 -9 -37 -20 -65 -25 -64 -11 4 -170 209 -406 522
-137 182 -219 301 -253 367 -27 53 -50 100 -50 103 0 13 20 5 66 -26z m14833
-263 c-44 -61 -166 -193 -191 -206 -16 -9 -13 -1 13 37 38 53 189 214 202 214
5 0 -6 -20 -24 -45z m4258 -117 c41 -38 31 -59 -64 -135 -187 -148 -223 -174
-223 -162 0 26 74 161 113 205 41 47 124 113 141 114 6 0 20 -10 33 -22z
m-4613 -287 c-19 -32 -119 -154 -196 -240 -38 -42 -48 -49 -48 -33 0 34 220
302 247 302 11 0 11 -6 -3 -29z m-13590 -574 c14 -19 31 -49 37 -68 6 -19 54
-123 107 -231 52 -109 93 -200 90 -204 -12 -11 -67 26 -95 63 -15 21 -52 65
-82 98 -30 33 -74 90 -97 126 -40 61 -94 171 -94 190 0 13 72 59 92 59 9 0 28
-15 42 -33z m12647 -576 c-25 -35 -50 -56 -57 -48 -9 8 57 87 68 81 4 -3 -1
-18 -11 -33z m-111 -123 c0 -22 -144 -208 -160 -208 -6 0 -10 2 -10 5 0 3 34
57 76 120 74 110 94 128 94 83z m-263 -356 c-30 -40 -43 -51 -45 -38 -5 26 60
117 75 104 9 -7 2 -24 -30 -66z m-717 -933 c0 -4 -9 -18 -21 -33 -30 -39 -43
-21 -17 25 15 27 24 35 30 27 4 -7 8 -16 8 -19z m-340 -465 c0 -12 -42 -64
-51 -64 -5 0 1 16 13 35 21 31 38 45 38 29z m-95 -104 c7 -12 -22 -70 -35 -70
-13 0 -13 10 1 49 11 31 23 39 34 21z m-299 -322 c-9 -18 -29 -57 -46 -87 -17
-30 -28 -56 -26 -58 2 -3 18 3 35 12 37 19 37 18 9 -39 -19 -40 -23 -43 -45
-35 -13 5 -30 9 -36 9 -7 0 -53 -56 -102 -125 -50 -68 -92 -124 -95 -125 -3 0
-11 4 -18 9 -11 6 29 69 159 257 101 144 175 242 177 232 2 -9 -4 -31 -12 -50z
m-316 -566 c0 -15 -28 -47 -35 -40 -8 8 13 48 25 48 6 0 10 -4 10 -8z m3854
-3155 c-26 -30 -32 -35 -35 -21 -3 13 43 64 52 59 5 -4 -2 -21 -17 -38z
m-3374 -4222 c0 -4 -7 -19 -15 -35 -18 -35 -52 -48 -72 -27 -18 18 -9 54 15
60 26 7 72 8 72 2z m-156 -173 c5 -9 -45 -92 -56 -92 -13 0 -9 39 7 70 15 29
38 39 49 22z m170 -259 c41 -61 72 -130 62 -140 -4 -5 -166 136 -166 144 0 10
42 63 50 63 4 0 29 -30 54 -67z m-78 -185 c13 -27 20 -48 14 -48 -5 0 -29 17
-51 38 -41 36 -69 84 -69 119 0 27 77 -53 106 -109z m-6288 65 c2 -21 -4 -39
-21 -59 -21 -24 -27 -26 -41 -15 -25 21 -20 66 11 91 33 26 47 22 51 -17z
m106 -113 c20 -22 36 -43 36 -48 0 -4 -15 -25 -33 -46 l-34 -39 -30 44 c-16
24 -32 49 -36 55 -8 14 29 74 47 74 7 0 30 -18 50 -40z m-103 -182 c5 -22 9
-44 7 -50 -5 -14 -148 174 -148 194 0 9 26 -9 65 -45 47 -44 68 -71 76 -99z
m-187 -182 c26 -38 35 -99 17 -110 -13 -9 -99 61 -116 94 -17 34 -19 68 -5
105 l10 25 34 -37 c18 -21 45 -56 60 -77z m-99 -103 c42 -59 45 -69 35 -91
-40 -88 -508 -687 -547 -699 -6 -2 -23 13 -37 33 -24 35 -24 39 -9 68 23 46
52 74 90 87 29 9 34 15 29 34 -5 20 -1 25 28 35 47 15 69 43 68 85 -2 64 34
138 110 222 90 100 143 180 159 243 7 28 16 50 20 50 4 0 28 -30 54 -67z
m7950 -953 c30 -18 64 -74 53 -85 -9 -10 -72 41 -91 73 -22 38 -10 42 38 12z
m-3104 -4731 c23 -23 22 -62 -1 -67 -14 -2 -28 17 -58 81 -8 16 39 6 59 -14z
m1131 -1419 c27 -20 53 -71 46 -90 -6 -18 -88 64 -88 88 0 27 10 28 42 2z
m7719 -6592 c39 -37 71 -77 78 -97 6 -19 10 -36 8 -37 -2 -2 -21 1 -43 7 -50
14 -103 70 -131 137 l-22 52 22 0 c13 0 48 -25 88 -62z m2297 2 c31 -19 67
-80 87 -149 l7 -25 -33 21 c-29 18 -127 144 -128 166 -1 14 34 7 67 -13z
m-3428 -192 c1 -19 -60 -7 -74 14 -17 23 -21 60 -9 72 7 6 82 -72 83 -86z
m137 -138 c31 -19 93 -93 93 -112 0 -19 -105 48 -127 81 -37 55 -25 67 34 31z
m244 -249 c111 -84 309 -290 309 -322 0 -24 -136 78 -235 176 -99 99 -172 195
-147 195 5 0 38 -22 73 -49z m1545 -32 c18 -11 41 -39 53 -64 43 -93 18 -88
-84 16 l-80 81 40 -7 c22 -4 54 -15 71 -26z m1597 -234 c37 -16 67 -35 67 -40
0 -20 -31 -55 -50 -55 -28 0 -64 19 -77 39 -16 26 -28 95 -16 90 6 -2 40 -17
76 -34z m-325 -116 c17 -18 30 -34 28 -37 -3 -2 -43 14 -89 36 -76 35 -107 62
-107 90 0 16 136 -56 168 -89z m338 -117 c23 -15 35 -51 24 -72 -15 -29 -38
-25 -99 17 l-54 37 29 13 c33 14 83 16 100 5z m-22577 -74 c-51 -100 -203
-308 -216 -294 -8 8 55 125 105 196 51 72 123 153 129 146 2 -2 -6 -24 -18
-48z"/>
<path d="M31572 37869 c-10 -16 -11 -24 -2 -33 13 -13 30 8 30 37 0 23 -12 22
-28 -4z"/>
<path d="M31178 37469 c-12 -7 -18 -22 -18 -47 l1 -37 34 37 c19 21 35 42 35
48 0 13 -30 12 -52 -1z"/>
<path d="M20493 36314 c-10 -26 13 -39 44 -25 27 12 27 13 8 27 -25 18 -44 18
-52 -2z"/>
<path d="M29322 35225 c-52 -43 -55 -111 -4 -79 38 23 52 44 52 76 0 35 -10
35 -48 3z"/>
<path d="M29437 35193 c-20 -27 -24 -40 -16 -50 14 -16 20 -12 43 31 28 53 7
68 -27 19z"/>
<path d="M29292 34996 c-35 -37 -52 -63 -52 -80 0 -38 13 -32 59 26 39 48 60
93 49 104 -3 2 -28 -20 -56 -50z"/>
<path d="M29162 34843 c-27 -63 -12 -67 44 -12 45 44 44 59 -2 59 -16 0 -27
-12 -42 -47z"/>
<path d="M16240 32545 c0 -28 40 -79 418 -535 57 -69 148 -191 203 -273 55
-81 165 -227 246 -325 80 -97 200 -253 266 -347 159 -223 237 -329 250 -337 5
-3 16 -4 23 -1 8 3 14 -10 19 -37 7 -42 149 -272 238 -387 75 -97 235 -249
248 -236 8 8 5 22 -10 51 -21 41 -133 183 -217 273 -23 26 -54 70 -69 99 -14
28 -59 87 -99 129 -40 43 -99 120 -131 172 -117 187 -195 297 -334 474 -78 99
-165 214 -193 255 -236 343 -753 976 -828 1015 -17 9 -30 13 -30 10z"/>
<path d="M25680 30055 c-24 -25 -31 -38 -23 -46 7 -7 20 1 42 28 51 62 37 76
-19 18z"/>
<path d="M18195 29800 c-7 -11 91 -140 105 -140 24 0 15 23 -31 84 -49 66 -62
75 -74 56z"/>
<path d="M18382 29547 c4 -16 921 -1447 925 -1443 7 6 -40 125 -89 229 -32 66
-93 168 -153 252 -55 78 -151 227 -213 331 -105 175 -351 534 -419 611 -31 33
-57 44 -51 20z"/>
<path d="M19472 28270 c77 -82 118 -109 118 -77 0 8 -19 22 -42 33 -36 16 -43
25 -52 64 -12 47 -39 70 -84 70 -20 0 -12 -13 60 -90z"/>
<path d="M21090 26282 c0 -17 48 -149 69 -189 11 -24 36 -59 54 -79 45 -52
178 -165 187 -159 11 7 -8 85 -27 114 -8 13 -38 49 -67 80 -28 31 -67 79 -85
106 -37 54 -110 135 -123 135 -4 0 -8 -4 -8 -8z"/>
<path d="M20675 26049 c-9 -13 41 -66 52 -56 8 9 -20 60 -35 65 -6 2 -13 -2
-17 -9z"/>
<path d="M24765 20490 c-3 -5 -2 -16 2 -23 19 -32 246 -317 250 -313 7 6 -43
110 -79 167 -45 69 -140 179 -155 179 -6 0 -15 -4 -18 -10z"/>
<path d="M25295 20300 c-8 -13 76 -134 167 -239 79 -91 180 -180 186 -163 2 6
-11 39 -29 74 -24 47 -65 97 -167 201 -75 75 -139 137 -143 137 -5 0 -11 -5
-14 -10z"/>
<path d="M24788 20096 c-15 -33 -19 -49 -11 -57 7 -7 17 0 32 26 23 39 26 60
11 70 -5 3 -20 -14 -32 -39z"/>
<path d="M25125 20020 c-6 -10 33 -70 46 -70 15 0 20 20 9 40 -13 25 -47 44
-55 30z"/>
<path d="M24967 19924 c-3 -4 1 -17 10 -31 20 -30 41 -16 24 16 -12 21 -23 26
-34 15z"/>
<path d="M25403 19767 c-29 -18 -52 -35 -50 -39 1 -5 139 -189 307 -410 l305
-402 3 57 c2 31 7 57 11 57 4 0 30 -7 57 -15 54 -16 76 -7 53 22 -8 10 -75 90
-150 179 -75 89 -209 256 -298 373 -90 116 -168 211 -174 210 -7 0 -36 -15
-64 -32z"/>
<path d="M24255 19093 c-156 -324 -224 -487 -211 -500 4 -4 14 -3 23 3 19 12
265 552 261 573 -8 38 -30 15 -73 -76z"/>
<path d="M26010 18854 c0 -14 83 -104 91 -98 13 8 11 37 -3 57 -13 17 -88 52
-88 41z"/>
<path d="M26206 18612 c-3 -5 2 -20 12 -33 24 -29 36 -11 13 20 -11 14 -21 19
-25 13z"/>
<path d="M26282 18482 c5 -30 19 -56 52 -96 40 -46 89 -77 102 -63 2 2 -3 27
-12 55 -18 54 -44 84 -108 122 l-39 24 5 -42z"/>
<path d="M25984 18394 c22 -27 41 -51 43 -53 2 -3 9 1 16 8 10 10 5 19 -23 43
-63 53 -77 54 -36 2z"/>
<path d="M22886 18340 c-24 -29 -45 -95 -33 -106 8 -9 89 115 82 126 -10 16
-22 12 -49 -20z"/>
<path d="M26396 17938 c17 -18 174 -196 348 -395 297 -339 350 -392 373 -370
7 8 -286 436 -335 489 -21 23 -31 27 -61 23 -41 -6 -50 0 -106 70 -69 87 -138
157 -184 187 -59 37 -72 36 -35 -4z"/>
<path d="M27157 17934 c-3 -4 4 -19 15 -35 17 -22 25 -26 35 -17 10 8 11 14 1
25 -15 19 -44 34 -51 27z"/>
<path d="M22544 17858 c-40 -54 -134 -231 -134 -252 0 -4 36 40 79 98 71 94
123 197 108 213 -3 3 -27 -24 -53 -59z"/>
<path d="M27586 17258 c22 -38 148 -207 152 -204 6 7 -28 107 -49 141 -23 38
-124 100 -103 63z"/>
<path d="M27160 17089 c0 -35 55 -122 107 -169 51 -47 133 -99 133 -84 0 3
-50 60 -112 127 -61 67 -115 126 -120 132 -5 5 -8 3 -8 -6z"/>
<path d="M34440 17092 c0 -54 440 -535 466 -509 3 2 -33 59 -80 125 -47 65
-86 124 -86 129 0 6 9 22 20 36 l20 25 -49 12 c-38 9 -70 29 -141 90 -83 70
-150 112 -150 92z"/>
<path d="M21748 16777 c-20 -18 -79 -98 -131 -177 -52 -80 -107 -156 -122
-170 -28 -25 -85 -133 -85 -160 0 -31 175 163 257 285 36 53 133 236 133 250
0 13 -19 3 -52 -28z"/>
<path d="M27506 16682 c-13 -22 418 -508 478 -539 22 -11 26 -12 20 -1 -27 45
-394 483 -440 526 -26 23 -49 28 -58 14z"/>
<path d="M34950 16665 c0 -7 170 -215 176 -215 5 0 -11 42 -31 81 -22 42 -83
107 -117 125 -15 8 -28 12 -28 9z"/>
<path d="M34980 16434 c0 -3 33 -45 73 -92 41 -48 122 -150 182 -227 181 -234
404 -479 421 -462 3 3 -8 36 -25 73 -29 62 -39 104 -25 104 4 0 22 -14 41 -31
19 -16 37 -28 40 -26 2 3 -5 23 -16 45 -28 54 -75 92 -115 92 -47 0 -88 34
-232 195 -127 140 -154 164 -186 165 -11 0 -18 8 -18 21 0 41 -33 92 -79 120
-44 28 -61 35 -61 23z"/>
<path d="M35225 16360 c-15 -24 53 -86 72 -67 6 7 -46 77 -58 77 -4 0 -11 -5
-14 -10z"/>
<path d="M21304 16147 c-247 -257 -975 -1294 -1070 -1523 l-16 -39 27 25 c16
14 62 77 103 140 142 218 216 326 472 685 141 198 282 397 313 442 32 45 94
123 139 175 45 51 87 100 95 109 11 13 11 18 0 27 -10 9 -24 0 -63 -41z"/>
<path d="M28470 16111 c0 -5 47 -53 105 -107 77 -70 109 -94 117 -86 23 23
-76 152 -137 177 -47 19 -85 26 -85 16z"/>
<path d="M28230 15855 c-12 -14 -9 -20 17 -46 19 -19 38 -29 51 -27 18 3 17 7
-17 46 -34 39 -39 41 -51 27z"/>
<path d="M28420 15619 c0 -20 129 -177 180 -220 28 -23 50 -48 50 -54 0 -18
39 -65 55 -65 21 0 6 37 -24 63 -15 12 -42 52 -59 89 -45 93 -202 238 -202
187z"/>
<path d="M35920 15497 c0 -28 34 -64 45 -47 3 6 -5 24 -19 41 -26 30 -26 30
-26 6z"/>
<path d="M35933 15368 c-29 -16 -53 -33 -53 -36 1 -4 36 -49 78 -101 72 -87
155 -161 167 -149 3 3 -10 27 -30 54 -49 69 -82 125 -90 154 -7 24 -5 23 30
-10 21 -19 79 -87 130 -150 92 -114 163 -187 204 -209 11 -7 21 -8 21 -3 0 26
-110 171 -209 277 -62 66 -127 139 -144 163 -17 23 -35 42 -41 41 -6 0 -35
-14 -63 -31z"/>
<path d="M28800 15150 c0 -6 16 -27 35 -48 34 -37 34 -37 35 -11 0 14 -10 35
-23 47 -25 23 -47 29 -47 12z"/>
<path d="M29128 14914 c-14 -15 -43 -30 -62 -33 l-36 -6 332 -412 333 -412 3
60 c3 57 4 60 25 53 46 -15 121 -33 124 -30 4 4 -677 806 -685 806 -4 0 -19
-12 -34 -26z"/>
<path d="M36241 14916 c-9 -11 -6 -19 19 -36 23 -17 35 -19 43 -11 8 8 4 17
-13 36 -27 29 -33 30 -49 11z"/>
<path d="M36697 14543 c-15 -14 -6 -53 19 -82 34 -41 44 -39 44 9 0 50 -40 97
-63 73z"/>
<path d="M37093 13999 c3 -23 14 -51 25 -61 18 -18 93 -50 100 -43 2 2 -4 15
-13 29 -13 19 -16 37 -11 65 6 38 5 38 -32 45 -73 12 -75 11 -69 -35z"/>
<path d="M29752 13972 c30 -43 69 -84 74 -79 3 3 3 19 -1 35 -4 21 -16 35 -40
46 -43 21 -49 20 -33 -2z"/>
<path d="M37267 13779 c-12 -44 -8 -57 24 -68 37 -13 59 -14 59 -3 0 4 -18 27
-39 51 -37 43 -38 44 -44 20z"/>
<path d="M30030 13625 c0 -42 65 -118 128 -149 l33 -17 -7 28 c-11 49 -48 107
-83 130 -39 27 -71 30 -71 8z"/>
<path d="M37370 13594 c0 -57 79 -123 96 -79 6 14 -72 115 -88 115 -5 0 -8
-16 -8 -36z"/>
<path d="M37566 13328 c-12 -46 -5 -75 30 -128 19 -30 44 -72 55 -92 12 -23
40 -51 73 -72 79 -50 107 -85 340 -418 191 -273 265 -362 284 -343 14 13 -251
412 -474 712 -134 181 -281 363 -293 363 -5 0 -11 -10 -15 -22z"/>
<path d="M30955 13070 c-10 -17 41 -68 55 -54 7 7 1 19 -19 38 -20 19 -31 24
-36 16z"/>
<path d="M30525 12817 c-12 -29 129 -273 198 -344 37 -39 101 -72 113 -60 5 4
-260 372 -292 406 -11 13 -14 12 -19 -2z"/>
<path d="M31445 12370 c-6 -10 31 -80 41 -80 3 0 14 5 26 11 20 11 19 12 -13
45 -35 36 -44 40 -54 24z"/>
<path d="M31088 12064 c-10 -10 21 -66 32 -59 14 9 12 17 -8 43 -10 13 -21 20
-24 16z"/>
<path d="M38500 12044 c0 -52 73 -169 121 -194 17 -10 17 -6 -6 45 -13 31 -33
68 -44 83 -26 36 -71 78 -71 66z"/>
<path d="M32064 11714 c12 -53 229 -225 266 -212 5 2 -8 26 -29 53 -37 49
-113 110 -200 162 l-44 26 7 -29z"/>
<path d="M32347 11263 c-14 -13 -4 -24 110 -122 78 -66 121 -97 127 -91 26 26
-79 156 -156 194 -54 27 -70 31 -81 19z"/>
<path d="M33036 10661 c-17 -7 -16 -8 7 -24 30 -19 63 -22 73 -6 14 23 -44 45
-80 30z"/>
<path d="M33196 10441 c-4 -5 134 -140 306 -300 l313 -290 3 74 c2 50 -2 83
-12 102 -23 44 -94 120 -167 179 -52 42 -71 63 -80 94 -19 63 -45 79 -186 116
-135 35 -168 40 -177 25z"/>
<path d="M37834 10259 c-7 -12 32 -48 54 -49 19 0 14 20 -10 41 -27 22 -34 23
-44 8z"/>
<path d="M38327 9631 c30 -52 133 -144 133 -118 0 29 -40 67 -72 67 -27 0 -30
3 -24 24 7 27 -26 76 -51 76 -11 0 -8 -11 14 -49z"/>
<path d="M38197 9404 c-12 -12 -8 -51 7 -63 8 -7 26 -11 40 -9 l24 3 -32 38
c-17 21 -35 35 -39 31z"/>
<path d="M38320 9221 c0 -27 23 -62 49 -76 17 -8 32 -15 35 -15 12 0 -16 67
-35 83 -23 18 -49 23 -49 8z"/>
<path d="M37855 8649 c30 -53 76 -74 103 -47 23 23 14 48 -17 48 -16 0 -43 3
-61 7 -27 5 -32 3 -25 -8z"/>
<path d="M37310 8272 c0 -16 32 -52 46 -52 22 0 16 26 -11 44 -27 18 -35 20
-35 8z"/>
</g>
</svg>
